<svg xmlns:x="http://ns.adobe.com/Extensibility/1.0/" xmlns:i="http://ns.adobe.com/AdobeIllustrator/10.0/" xmlns:graph="http://ns.adobe.com/Graphs/1.0/" xmlns:a="http://ns.adobe.com/AdobeSVGViewerExtensions/3.0/"  xmlns="http://www.w3.org/2000/svg" xmlns:xlink="http://www.w3.org/1999/xlink" width="778" height="81"><defs></defs><rect stroke="#000000" stroke-width="1" fill="#ffffff" x="0" y="0" width="777" height="80"/><g transform='translate(1.5,0.0) rotate(0 388.5 40.0)'><defs><linearGradient id='g0' x1='50%' y1='-25%' x2='50%' y2='100%'><stop stop-color='white' offset='0%'/><stop stop-color='#2f3192' offset='100%'/></linearGradient></defs><g transform='translate(8.0,8.0)'><rect width="777.0" height="80.0" stroke="#A8A8A8" stroke-width="0" stroke-opacity=".6" fill-opacity=".6" fill="#A8A8A8"/></g><rect width="777.0" height="80.0" stroke="#fff467" stroke-width="2" style="fill:url(#g0)"/><g ></g></g><defs><symbol id="com.gliffy.network.home.Laptop" viewBox="0 0 99.999 100" preserveAspectRatio="none"><g id="Layer_1">	<rect fill="none" width="99.999" height="100"/>	<polygon fill="#047391" points="91.637,31.842 79.599,69.686 39.269,47.341 48.801,10.774 	"/>	<polygon fill="#000000" stroke="#B2B2B2" stroke-width="0.5" points="15.922,65.443 34.506,54.932 70.993,74.992 53.313,85.372 	"/>	<g>		<g>			<g enable-background="new    ">				<path fill="#3F3F3F" stroke="#B2B2B2" stroke-width="0.3" d="M35.667,77.504l-7.404-4.008c-0.237-0.138-1.063-0.015-1.01-0.045					l-4.9,2.849c-0.251,0.148-0.22,0.412,0.08,0.585l7.453,4.303c0.299,0.174,0.752,0.187,1.003,0.042l4.901-2.851					c0.486-0.304,0.249-0.666-0.05-0.84"/>			</g>		</g>	</g>	<path fill="#4B4B4B" d="M80.041,74.238c-0.025-0.138,0.222,0.524-2.007,1.779c-1.444,0.868-28.5,17.353-28.5,17.353v0.008		c-0.56,0.327-2.813,1.5-5.889,0.104c0,0,0,0.015,0,0.018L4.911,71.609c0,0-1.387-0.819-1.828-1.125		c-0.441-0.303-0.608-1.325-0.608-1.325l0.028,3.423c0,0,0.056,0.524,0.635,0.912c0.58,0.388,1.758,1.056,1.758,1.056l38.818,21.904		v-0.019c2.716,1.582,5.387,0.017,5.387,0.017l28.967-17.749c0,0,0.014-0.034,0.884-0.538C79.82,77.659,80.069,74.377,80.041,74.238		z"/>	<g>		<g>			<g>				<path fill="#3F3F3F" d="M34.568,60.064l-1.615-0.932c-0.37-0.214-0.979-0.214-1.347,0l-1.268,0.737					c-0.368,0.213-0.365,0.567,0.005,0.78l1.613,0.929c0.372,0.218,0.98,0.218,1.348,0.003l1.268-0.736					C34.94,60.631,34.938,60.277,34.568,60.064"/>			</g>			<g>				<path fill="#6C6C6C" d="M34.174,59.831l-1.345-0.776c-0.308-0.179-0.815-0.179-1.122,0l-1.055,0.613					c-0.308,0.178-0.304,0.474,0.004,0.65l1.342,0.774c0.31,0.182,0.817,0.182,1.123,0.001l1.057-0.612					C34.485,60.304,34.482,60.008,34.174,59.831"/>			</g>		</g>		<g>			<g>				<path fill="#3F3F3F" d="M37.615,61.776l-1.614-0.933c-0.369-0.214-0.979-0.214-1.347,0l-1.268,0.736					c-0.368,0.214-0.365,0.568,0.005,0.778l1.613,0.928c0.372,0.219,0.98,0.219,1.347,0.004l1.269-0.734					C37.99,62.34,37.986,61.986,37.615,61.776"/>			</g>			<g>				<path fill="#6C6C6C" d="M37.222,61.541l-1.344-0.775c-0.309-0.18-0.816-0.18-1.123,0l-1.054,0.612					c-0.307,0.179-0.304,0.474,0.004,0.65l1.342,0.774c0.311,0.182,0.816,0.182,1.123,0.003l1.057-0.612					C37.533,62.013,37.53,61.718,37.222,61.541"/>			</g>		</g>		<g>			<g>				<path fill="#3F3F3F" d="M40.665,63.484l-1.615-0.931c-0.37-0.214-0.979-0.214-1.346,0l-1.269,0.736					c-0.368,0.214-0.365,0.567,0.004,0.78l1.613,0.927c0.372,0.219,0.981,0.219,1.348,0.005l1.269-0.736					C41.038,64.053,41.035,63.698,40.665,63.484"/>			</g>			<g>				<path fill="#6C6C6C" d="M40.27,63.252l-1.344-0.777c-0.308-0.178-0.815-0.178-1.122,0l-1.055,0.612					c-0.307,0.179-0.304,0.474,0.003,0.651l1.343,0.775c0.31,0.183,0.816,0.183,1.122,0.001l1.057-0.613					C40.581,63.723,40.58,63.427,40.27,63.252"/>			</g>		</g>		<g>			<g>				<path fill="#3F3F3F" d="M43.565,65.121l-1.615-0.932c-0.37-0.213-0.979-0.213-1.348,0l-1.267,0.735					c-0.368,0.215-0.365,0.569,0.004,0.78l1.613,0.929c0.371,0.22,0.982,0.22,1.347,0.003l1.269-0.735					C43.938,65.688,43.935,65.334,43.565,65.121"/>			</g>			<g>				<path fill="#6C6C6C" d="M43.171,64.889l-1.343-0.778c-0.309-0.177-0.816-0.177-1.123,0l-1.055,0.613					c-0.308,0.18-0.304,0.475,0.004,0.651l1.342,0.773c0.311,0.182,0.816,0.182,1.122,0.001l1.057-0.612					C43.481,65.359,43.479,65.063,43.171,64.889"/>			</g>		</g>		<g>			<g>				<path fill="#3F3F3F" d="M46.688,66.83l-1.615-0.931c-0.37-0.213-0.979-0.213-1.348,0l-1.267,0.735					c-0.368,0.214-0.365,0.566,0.006,0.781l1.613,0.927c0.372,0.219,0.98,0.219,1.348,0.003l1.269-0.736					C47.061,67.396,47.059,67.045,46.688,66.83"/>			</g>			<g>				<path fill="#6C6C6C" d="M46.293,66.598L44.95,65.82c-0.309-0.179-0.815-0.179-1.122,0l-1.056,0.612					c-0.307,0.181-0.304,0.474,0.005,0.649l1.342,0.775c0.31,0.182,0.815,0.182,1.123,0.001l1.057-0.611					C46.604,67.068,46.602,66.772,46.293,66.598"/>			</g>		</g>		<g>			<g>				<path fill="#3F3F3F" d="M49.811,68.465l-1.615-0.93c-0.369-0.214-0.979-0.214-1.348,0l-1.267,0.735					c-0.369,0.215-0.365,0.568,0.005,0.781l1.613,0.926c0.371,0.22,0.981,0.22,1.348,0.005l1.268-0.736					C50.184,69.032,50.182,68.679,49.811,68.465"/>			</g>			<g>				<path fill="#6C6C6C" d="M49.417,68.231l-1.345-0.776c-0.307-0.178-0.815-0.178-1.122,0l-1.056,0.613					c-0.307,0.181-0.304,0.475,0.005,0.65l1.341,0.775c0.312,0.183,0.817,0.183,1.123,0.002l1.057-0.613					C49.726,68.705,49.724,68.41,49.417,68.231"/>			</g>		</g>		<g>			<g>				<path fill="#3F3F3F" d="M53.008,70.177l-1.614-0.931c-0.37-0.214-0.98-0.214-1.348,0l-1.267,0.736					c-0.368,0.213-0.365,0.567,0.006,0.78l1.612,0.927c0.371,0.219,0.98,0.219,1.349,0.003l1.267-0.736					C53.381,70.742,53.378,70.389,53.008,70.177"/>			</g>			<g>				<path fill="#6C6C6C" d="M52.613,69.942l-1.344-0.776c-0.309-0.178-0.814-0.178-1.122,0l-1.056,0.613					c-0.307,0.179-0.304,0.473,0.005,0.651l1.342,0.774c0.309,0.181,0.817,0.181,1.123,0.002l1.057-0.614					C52.924,70.416,52.922,70.121,52.613,69.942"/>			</g>		</g>		<g>			<g>				<path fill="#3F3F3F" d="M56.056,71.961L54.44,71.03c-0.368-0.213-0.979-0.213-1.346,0l-1.269,0.736					c-0.367,0.215-0.364,0.567,0.005,0.78l1.615,0.928c0.371,0.219,0.979,0.219,1.347,0.003l1.269-0.737					C56.43,72.526,56.426,72.174,56.056,71.961"/>			</g>			<g>				<path fill="#6C6C6C" d="M55.661,71.729l-1.343-0.777c-0.308-0.178-0.816-0.178-1.122,0l-1.056,0.614					c-0.308,0.178-0.304,0.472,0.004,0.65l1.342,0.772c0.313,0.182,0.817,0.182,1.124,0.005l1.057-0.615					C55.973,72.201,55.97,71.905,55.661,71.729"/>			</g>		</g>		<g>			<g>				<path fill="#3F3F3F" d="M59.254,73.672l-1.615-0.932c-0.367-0.214-0.978-0.214-1.348,0l-1.266,0.737					c-0.369,0.215-0.365,0.566,0.006,0.782l1.611,0.925c0.371,0.219,0.981,0.219,1.349,0.006l1.268-0.74					C59.626,74.238,59.625,73.886,59.254,73.672"/>			</g>			<g>				<path fill="#6C6C6C" d="M58.858,73.439l-1.343-0.778c-0.309-0.176-0.815-0.176-1.122,0l-1.056,0.615					c-0.307,0.178-0.304,0.474,0.005,0.649l1.343,0.775c0.308,0.181,0.815,0.181,1.121,0.003l1.057-0.615					C59.17,73.911,59.168,73.615,58.858,73.439"/>			</g>		</g>		<g>			<g>				<path fill="#3F3F3F" d="M62.6,75.456l-1.612-0.93c-0.372-0.214-0.981-0.214-1.349,0l-1.269,0.736					c-0.368,0.215-0.366,0.565,0.005,0.78l1.612,0.926c0.373,0.22,0.982,0.22,1.35,0.004l1.266-0.735					C62.974,76.025,62.968,75.671,62.6,75.456"/>			</g>			<g>				<path fill="#6C6C6C" d="M62.206,75.225l-1.345-0.777c-0.311-0.178-0.816-0.178-1.122,0l-1.053,0.613					c-0.311,0.177-0.307,0.473,0.002,0.649l1.342,0.775c0.31,0.183,0.817,0.183,1.122,0.002l1.057-0.613					C62.517,75.696,62.514,75.399,62.206,75.225"/>			</g>		</g>	</g>	<g>		<g>			<g>				<path fill="#3F3F3F" d="M37.654,57.704l-1.614-0.931c-0.37-0.214-0.979-0.214-1.348,0l-1.268,0.736					c-0.368,0.215-0.365,0.567,0.005,0.779l1.614,0.929c0.371,0.219,0.98,0.219,1.347,0.003l1.269-0.736					C38.028,58.27,38.025,57.917,37.654,57.704"/>			</g>			<g>				<path fill="#6C6C6C" d="M37.26,57.472l-1.344-0.778c-0.309-0.176-0.816-0.176-1.123,0l-1.055,0.614					c-0.307,0.179-0.304,0.474,0.004,0.65l1.343,0.775c0.309,0.179,0.815,0.179,1.122,0.001l1.056-0.613					C37.571,57.944,37.569,57.648,37.26,57.472"/>			</g>		</g>		<g>			<g>				<path fill="#3F3F3F" d="M40.703,59.414l-1.615-0.932c-0.37-0.214-0.979-0.214-1.348,0l-1.267,0.737					c-0.368,0.216-0.365,0.568,0.005,0.78l1.613,0.926c0.372,0.22,0.98,0.22,1.348,0.006l1.268-0.737					C41.076,59.979,41.073,59.627,40.703,59.414"/>			</g>			<g>				<path fill="#6C6C6C" d="M40.309,59.181l-1.344-0.777c-0.309-0.176-0.815-0.176-1.122,0l-1.056,0.612					c-0.308,0.182-0.304,0.476,0.004,0.652l1.343,0.774c0.309,0.181,0.815,0.181,1.122,0.003l1.057-0.614					C40.619,59.652,40.616,59.356,40.309,59.181"/>			</g>		</g>		<g>			<g>				<path fill="#3F3F3F" d="M43.752,61.124l-1.615-0.932c-0.371-0.213-0.979-0.213-1.348,0l-1.268,0.739					c-0.368,0.213-0.365,0.565,0.006,0.778l1.613,0.929c0.371,0.218,0.98,0.218,1.347,0.003l1.269-0.737					C44.125,61.69,44.121,61.337,43.752,61.124"/>			</g>			<g>				<path fill="#6C6C6C" d="M43.357,60.892l-1.343-0.775c-0.309-0.18-0.816-0.18-1.123,0l-1.056,0.612					c-0.307,0.178-0.304,0.472,0.004,0.649l1.343,0.775c0.309,0.181,0.816,0.181,1.121,0.003l1.058-0.614					C43.667,61.362,43.666,61.067,43.357,60.892"/>			</g>		</g>		<g>			<g>				<path fill="#3F3F3F" d="M46.651,62.761l-1.614-0.932c-0.37-0.213-0.979-0.213-1.347,0l-1.269,0.735					c-0.368,0.215-0.365,0.568,0.007,0.782l1.612,0.926c0.372,0.219,0.98,0.219,1.347,0.002l1.269-0.734					C47.025,63.327,47.022,62.974,46.651,62.761"/>			</g>			<g>				<path fill="#6C6C6C" d="M46.257,62.527l-1.344-0.776c-0.309-0.179-0.816-0.179-1.122,0l-1.056,0.613					c-0.307,0.177-0.304,0.472,0.004,0.651l1.342,0.771c0.31,0.183,0.816,0.183,1.122,0.004l1.058-0.613					C46.568,62.999,46.566,62.704,46.257,62.527"/>			</g>		</g>		<g>			<g>				<path fill="#3F3F3F" d="M49.775,64.47l-1.615-0.931c-0.37-0.215-0.979-0.215-1.347,0l-1.267,0.734					c-0.369,0.214-0.366,0.567,0.004,0.782l1.612,0.928c0.372,0.219,0.981,0.219,1.348,0.004l1.27-0.737					C50.148,65.037,50.144,64.684,49.775,64.47"/>			</g>			<g>				<path fill="#6C6C6C" d="M49.381,64.237l-1.346-0.776c-0.307-0.179-0.815-0.179-1.121,0l-1.055,0.611					c-0.308,0.179-0.304,0.475,0.003,0.65l1.343,0.776c0.31,0.182,0.816,0.182,1.122,0.001l1.057-0.612					C49.69,64.709,49.688,64.413,49.381,64.237"/>			</g>		</g>		<g>			<g>				<path fill="#3F3F3F" d="M52.897,66.105l-1.615-0.931c-0.37-0.215-0.979-0.215-1.347,0l-1.267,0.735					c-0.369,0.215-0.366,0.567,0.004,0.781l1.613,0.928c0.372,0.219,0.981,0.219,1.348,0.004l1.268-0.737					C53.271,66.672,53.267,66.318,52.897,66.105"/>			</g>			<g>				<path fill="#6C6C6C" d="M52.503,65.872l-1.343-0.777c-0.311-0.179-0.816-0.179-1.124,0l-1.056,0.614					c-0.306,0.177-0.303,0.473,0.005,0.649l1.342,0.775c0.31,0.182,0.816,0.182,1.123,0l1.057-0.612					C52.815,66.345,52.812,66.047,52.503,65.872"/>			</g>		</g>		<g>			<g>				<path fill="#3F3F3F" d="M56.095,67.815l-1.615-0.93c-0.369-0.214-0.979-0.214-1.347,0l-1.269,0.737					c-0.367,0.211-0.364,0.565,0.007,0.78l1.612,0.928c0.371,0.217,0.98,0.217,1.346,0.002l1.271-0.736					C56.467,68.385,56.465,68.031,56.095,67.815"/>			</g>			<g>				<path fill="#6C6C6C" d="M55.701,67.585l-1.347-0.775c-0.307-0.184-0.815-0.184-1.12,0l-1.057,0.611					c-0.306,0.176-0.302,0.472,0.005,0.647l1.344,0.777c0.31,0.18,0.813,0.18,1.12,0l1.058-0.614					C56.01,68.055,56.007,67.761,55.701,67.585"/>			</g>		</g>		<g>			<g>				<path fill="#3F3F3F" d="M59.144,69.601l-1.615-0.932c-0.37-0.211-0.979-0.211-1.346,0l-1.269,0.739					c-0.369,0.21-0.365,0.564,0.004,0.78l1.613,0.927c0.372,0.219,0.982,0.219,1.348,0.004l1.27-0.739					C59.517,70.167,59.513,69.815,59.144,69.601"/>			</g>			<g>				<path fill="#6C6C6C" d="M58.75,69.368l-1.344-0.776c-0.311-0.179-0.817-0.179-1.123,0l-1.056,0.614					c-0.307,0.175-0.305,0.472,0.004,0.648l1.344,0.776c0.309,0.18,0.815,0.18,1.122,0l1.056-0.614					C59.062,69.841,59.058,69.546,58.75,69.368"/>			</g>		</g>		<g>			<g>				<path fill="#3F3F3F" d="M62.341,71.311l-1.614-0.931c-0.37-0.213-0.98-0.213-1.348,0l-1.267,0.739					c-0.369,0.211-0.365,0.564,0.003,0.779l1.613,0.928c0.371,0.22,0.98,0.22,1.346,0.005l1.271-0.741					C62.714,71.879,62.708,71.525,62.341,71.311"/>			</g>			<g>				<path fill="#6C6C6C" d="M61.945,71.079l-1.345-0.776c-0.306-0.181-0.813-0.181-1.12,0l-1.056,0.613					c-0.308,0.176-0.304,0.472,0.003,0.649l1.345,0.776c0.309,0.18,0.814,0.18,1.118,0l1.061-0.613					C62.257,71.553,62.252,71.256,61.945,71.079"/>			</g>		</g>		<g>			<g>				<path fill="#3F3F3F" d="M65.686,73.096l-1.614-0.932c-0.37-0.212-0.979-0.212-1.349,0l-1.266,0.738					c-0.368,0.213-0.365,0.564,0.005,0.782l1.613,0.927c0.371,0.22,0.98,0.22,1.349,0.003l1.266-0.739					C66.059,73.664,66.057,73.312,65.686,73.096"/>			</g>			<g>				<path fill="#6C6C6C" d="M65.293,72.865l-1.346-0.776c-0.308-0.181-0.816-0.181-1.12,0l-1.058,0.612					c-0.306,0.175-0.301,0.47,0.005,0.648l1.343,0.778c0.309,0.178,0.816,0.178,1.121,0l1.057-0.614					C65.603,73.337,65.6,73.042,65.293,72.865"/>			</g>		</g>	</g>	<g>		<g>			<g>				<path fill="#3F3F3F" d="M30.626,60.733l-1.614-0.931c-0.37-0.214-0.979-0.214-1.348,0l-1.267,0.734					c-0.368,0.214-0.365,0.569,0.005,0.781l1.612,0.927c0.372,0.22,0.981,0.22,1.348,0.003l1.269-0.734					C31,61.301,30.998,60.945,30.626,60.733"/>			</g>			<g>				<path fill="#6C6C6C" d="M30.234,60.5l-1.346-0.776c-0.308-0.18-0.815-0.18-1.121,0l-1.056,0.614					c-0.307,0.177-0.304,0.472,0.005,0.649l1.342,0.773c0.311,0.182,0.816,0.182,1.123,0.003l1.057-0.614					C30.544,60.973,30.542,60.678,30.234,60.5"/>			</g>		</g>		<g>			<g>				<path fill="#3F3F3F" d="M33.899,62.443l-1.615-0.932c-0.37-0.212-0.979-0.212-1.347,0l-1.268,0.736					c-0.369,0.214-0.365,0.567,0.005,0.782l1.613,0.926c0.372,0.219,0.98,0.219,1.348,0.004l1.269-0.735					C34.272,63.011,34.269,62.657,33.899,62.443"/>			</g>			<g>				<path fill="#6C6C6C" d="M33.506,62.211l-1.345-0.776c-0.308-0.179-0.815-0.179-1.122,0l-1.056,0.612					c-0.307,0.179-0.304,0.475,0.004,0.649l1.343,0.776c0.309,0.182,0.816,0.182,1.122,0.001l1.058-0.614					C33.816,62.684,33.814,62.387,33.506,62.211"/>			</g>		</g>		<g>			<g>				<path fill="#3F3F3F" d="M37.022,64.151l-1.615-0.931c-0.369-0.212-0.978-0.212-1.347,0l-1.267,0.738					c-0.368,0.213-0.366,0.565,0.004,0.779l1.613,0.928c0.371,0.219,0.98,0.219,1.347,0.003l1.27-0.737					C37.396,64.719,37.392,64.365,37.022,64.151"/>			</g>			<g>				<path fill="#6C6C6C" d="M36.628,63.92l-1.345-0.776c-0.308-0.18-0.815-0.18-1.122,0l-1.055,0.612					c-0.307,0.179-0.304,0.474,0.003,0.649l1.343,0.775c0.311,0.182,0.816,0.182,1.122,0.004l1.057-0.616					C36.938,64.392,36.936,64.098,36.628,63.92"/>			</g>		</g>		<g>			<g>				<path fill="#3F3F3F" d="M40.145,65.862l-1.614-0.932c-0.372-0.214-0.98-0.214-1.348,0l-1.267,0.736					c-0.368,0.215-0.365,0.568,0.005,0.781l1.613,0.926c0.372,0.22,0.98,0.22,1.347,0.003l1.269-0.736					C40.518,66.429,40.515,66.075,40.145,65.862"/>			</g>			<g>				<path fill="#6C6C6C" d="M39.75,65.631l-1.344-0.778c-0.308-0.178-0.816-0.178-1.122,0l-1.056,0.613					c-0.308,0.179-0.304,0.474,0.004,0.649l1.342,0.776c0.311,0.182,0.817,0.182,1.122,0.001l1.058-0.613					C40.061,66.103,40.059,65.807,39.75,65.631"/>			</g>		</g>		<g>			<g>				<path fill="#3F3F3F" d="M43.267,67.571l-1.614-0.932c-0.37-0.213-0.979-0.213-1.348,0l-1.267,0.735					c-0.368,0.215-0.365,0.567,0.004,0.782l1.613,0.928c0.372,0.218,0.98,0.218,1.348,0.003l1.269-0.736					C43.64,68.138,43.637,67.785,43.267,67.571"/>			</g>			<g>				<path fill="#6C6C6C" d="M42.874,67.339l-1.345-0.775c-0.308-0.18-0.815-0.18-1.122,0l-1.056,0.612					c-0.307,0.177-0.304,0.473,0.004,0.649l1.342,0.774c0.31,0.184,0.816,0.184,1.122,0.002l1.056-0.614					C43.184,67.811,43.181,67.513,42.874,67.339"/>			</g>		</g>		<g>			<g>				<path fill="#3F3F3F" d="M46.39,69.28l-1.615-0.931c-0.369-0.213-0.979-0.213-1.347,0l-1.267,0.736					c-0.368,0.212-0.365,0.565,0.004,0.779l1.613,0.928c0.373,0.22,0.981,0.22,1.349,0.003l1.269-0.734					C46.763,69.848,46.76,69.494,46.39,69.28"/>			</g>			<g>				<path fill="#6C6C6C" d="M45.996,69.048l-1.344-0.777c-0.309-0.178-0.816-0.178-1.122,0l-1.056,0.614					c-0.307,0.179-0.304,0.474,0.003,0.649l1.344,0.774c0.31,0.182,0.815,0.182,1.122,0.001L46,69.697					C46.306,69.519,46.305,69.225,45.996,69.048"/>			</g>		</g>		<g>			<g>				<path fill="#3F3F3F" d="M49.513,70.991l-1.615-0.932c-0.37-0.214-0.978-0.214-1.348,0l-1.268,0.736					c-0.367,0.214-0.365,0.566,0.005,0.778l1.614,0.93c0.372,0.218,0.981,0.218,1.347,0.002l1.27-0.735					C49.885,71.556,49.882,71.203,49.513,70.991"/>			</g>			<g>				<path fill="#6C6C6C" d="M49.118,70.759l-1.343-0.778c-0.309-0.179-0.815-0.179-1.122,0l-1.056,0.612					c-0.307,0.18-0.305,0.473,0.005,0.65l1.342,0.775c0.31,0.183,0.816,0.183,1.122,0.001l1.058-0.612					C49.43,71.229,49.427,70.933,49.118,70.759"/>			</g>		</g>		<g>			<g>				<path fill="#3F3F3F" d="M52.635,72.7l-1.613-0.931c-0.371-0.215-0.981-0.215-1.349,0l-1.267,0.735					c-0.368,0.213-0.365,0.566,0.006,0.78l1.612,0.927c0.371,0.219,0.979,0.219,1.348,0.004l1.268-0.735					C53.009,73.268,53.005,72.914,52.635,72.7"/>			</g>			<g>				<path fill="#6C6C6C" d="M52.242,72.468l-1.344-0.778c-0.309-0.177-0.816-0.177-1.123,0l-1.055,0.613					c-0.307,0.177-0.304,0.473,0.003,0.65l1.342,0.775c0.31,0.182,0.817,0.182,1.123,0l1.059-0.612					C52.552,72.938,52.55,72.643,52.242,72.468"/>			</g>		</g>		<g>			<g>				<path fill="#3F3F3F" d="M55.759,74.409l-1.615-0.932c-0.369-0.212-0.979-0.212-1.35,0l-1.266,0.736					c-0.367,0.215-0.365,0.567,0.006,0.78l1.612,0.929c0.372,0.219,0.98,0.219,1.348,0.004l1.269-0.736					C56.132,74.976,56.128,74.623,55.759,74.409"/>			</g>			<g>				<path fill="#6C6C6C" d="M55.363,74.175l-1.343-0.775c-0.308-0.179-0.816-0.179-1.123,0l-1.056,0.611					c-0.307,0.18-0.304,0.475,0.004,0.651l1.344,0.776c0.31,0.181,0.815,0.181,1.123,0l1.056-0.613					C55.675,74.647,55.673,74.353,55.363,74.175"/>			</g>		</g>		<g>			<g>				<path fill="#3F3F3F" d="M58.881,76.116l-1.614-0.927c-0.369-0.215-0.979-0.215-1.349,0l-1.266,0.735					c-0.369,0.213-0.366,0.565,0.004,0.779l1.612,0.928c0.371,0.218,0.983,0.218,1.35,0.003l1.265-0.737					C59.254,76.684,59.252,76.33,58.881,76.116"/>			</g>			<g>				<path fill="#6C6C6C" d="M58.486,75.884l-1.344-0.775c-0.309-0.179-0.815-0.179-1.122,0l-1.055,0.613					c-0.309,0.177-0.306,0.474,0.003,0.65l1.345,0.775c0.309,0.18,0.814,0.18,1.121,0.001l1.056-0.614					C58.798,76.357,58.794,76.062,58.486,75.884"/>			</g>		</g>		<g>			<g>				<path fill="#3F3F3F" d="M62.227,77.827l-1.614-0.931c-0.372-0.214-0.98-0.214-1.348,0l-1.268,0.737					c-0.367,0.214-0.364,0.567,0.005,0.78l1.612,0.928c0.373,0.219,0.981,0.219,1.349,0.004l1.268-0.737					C62.6,78.394,62.597,78.04,62.227,77.827"/>			</g>			<g>				<path fill="#6C6C6C" d="M61.834,77.595l-1.347-0.777c-0.307-0.177-0.814-0.177-1.122,0l-1.055,0.613					c-0.308,0.178-0.303,0.474,0.005,0.652l1.342,0.774c0.312,0.18,0.817,0.18,1.122,0l1.058-0.613					C62.142,78.067,62.142,77.771,61.834,77.595"/>			</g>		</g>	</g>	<g>		<g>			<g>				<path fill="#3F3F3F" d="M30.181,63.037l-1.614-0.93c-0.371-0.213-0.979-0.213-1.348,0l-1.267,0.736					c-0.369,0.214-0.366,0.566,0.004,0.78l1.614,0.928c0.372,0.219,0.98,0.219,1.347,0.005l1.269-0.738					C30.554,63.605,30.55,63.252,30.181,63.037"/>			</g>			<g>				<path fill="#6C6C6C" d="M29.786,62.806l-1.343-0.777c-0.309-0.178-0.816-0.178-1.123,0l-1.055,0.613					c-0.308,0.179-0.304,0.474,0.004,0.649l1.342,0.776c0.31,0.179,0.816,0.179,1.122,0.002l1.057-0.613					C30.097,63.277,30.095,62.982,29.786,62.806"/>			</g>		</g>		<g>			<g>				<path fill="#3F3F3F" d="M33.229,64.748l-1.615-0.93c-0.369-0.213-0.979-0.213-1.348,0L29,64.557					c-0.369,0.211-0.366,0.564,0.005,0.778l1.612,0.928c0.371,0.22,0.981,0.22,1.348,0.004l1.269-0.738					C33.602,65.315,33.599,64.964,33.229,64.748"/>			</g>			<g>				<path fill="#6C6C6C" d="M32.835,64.516L31.49,63.74c-0.308-0.181-0.815-0.181-1.122,0l-1.056,0.612					c-0.307,0.178-0.304,0.473,0.003,0.649l1.343,0.777c0.311,0.178,0.817,0.178,1.123,0l1.057-0.612					C33.145,64.988,33.142,64.693,32.835,64.516"/>			</g>		</g>		<g>			<g>				<path fill="#3F3F3F" d="M36.277,66.459l-1.615-0.931c-0.37-0.214-0.979-0.214-1.348,0l-1.268,0.735					c-0.368,0.215-0.365,0.568,0.006,0.781l1.613,0.926c0.371,0.221,0.98,0.221,1.348,0.005l1.269-0.736					C36.65,67.025,36.647,66.672,36.277,66.459"/>			</g>			<g>				<path fill="#6C6C6C" d="M35.883,66.225l-1.345-0.776c-0.308-0.177-0.815-0.177-1.121,0l-1.057,0.613					c-0.307,0.181-0.304,0.475,0.005,0.65l1.342,0.775c0.311,0.183,0.816,0.183,1.123,0.002l1.057-0.613					C36.194,66.699,36.191,66.403,35.883,66.225"/>			</g>		</g>		<g>			<g>				<path fill="#3F3F3F" d="M39.177,68.095l-1.614-0.931c-0.37-0.214-0.979-0.214-1.348,0L34.948,67.9					c-0.369,0.214-0.365,0.565,0.005,0.779l1.613,0.931c0.371,0.217,0.98,0.217,1.348,0.002l1.268-0.739					C39.551,68.66,39.547,68.308,39.177,68.095"/>			</g>			<g>				<path fill="#6C6C6C" d="M38.784,67.862l-1.345-0.778c-0.308-0.178-0.815-0.178-1.122,0l-1.055,0.613					c-0.307,0.179-0.304,0.475,0.005,0.649l1.342,0.776c0.31,0.182,0.816,0.182,1.122,0.001l1.058-0.612					C39.094,68.333,39.092,68.039,38.784,67.862"/>			</g>		</g>		<g>			<g>				<path fill="#3F3F3F" d="M42.3,69.805l-1.615-0.932c-0.37-0.214-0.979-0.214-1.347,0l-1.267,0.737					c-0.368,0.213-0.366,0.566,0.004,0.778l1.613,0.93c0.372,0.218,0.98,0.218,1.347,0.002l1.269-0.736					C42.672,70.37,42.671,70.017,42.3,69.805"/>			</g>			<g>				<path fill="#6C6C6C" d="M41.906,69.571l-1.344-0.777c-0.308-0.178-0.815-0.178-1.122,0l-1.055,0.614					c-0.307,0.177-0.304,0.471,0.004,0.65l1.343,0.772c0.31,0.183,0.817,0.183,1.122,0.004l1.058-0.613					C42.217,70.043,42.216,69.748,41.906,69.571"/>			</g>		</g>		<g>			<g>				<path fill="#3F3F3F" d="M45.424,71.438l-1.616-0.932c-0.37-0.213-0.979-0.213-1.349,0l-1.266,0.739					c-0.368,0.211-0.365,0.565,0.004,0.779l1.614,0.928c0.371,0.217,0.981,0.217,1.347,0.002l1.269-0.735					C45.797,72.004,45.793,71.652,45.424,71.438"/>			</g>			<g>				<path fill="#6C6C6C" d="M45.028,71.207l-1.343-0.776c-0.309-0.179-0.816-0.179-1.123,0l-1.055,0.613					c-0.308,0.176-0.304,0.473,0.004,0.648l1.343,0.777c0.31,0.179,0.816,0.179,1.123,0.002l1.057-0.614					C45.34,71.679,45.337,71.383,45.028,71.207"/>			</g>		</g>		<g>			<g>				<path fill="#3F3F3F" d="M48.621,73.15l-1.616-0.931c-0.37-0.216-0.978-0.216-1.348,0l-1.267,0.735					c-0.368,0.214-0.365,0.568,0.005,0.78l1.613,0.929c0.372,0.218,0.981,0.218,1.348,0.003l1.268-0.735					C48.993,73.717,48.991,73.363,48.621,73.15"/>			</g>			<g>				<path fill="#6C6C6C" d="M48.226,72.918l-1.344-0.777c-0.309-0.177-0.815-0.177-1.122,0l-1.056,0.612					c-0.308,0.18-0.305,0.474,0.005,0.652l1.342,0.774c0.309,0.182,0.816,0.182,1.122,0.001l1.057-0.613					C48.537,73.39,48.535,73.093,48.226,72.918"/>			</g>		</g>		<g>			<g>				<path fill="#3F3F3F" d="M51.669,74.936l-1.615-0.932c-0.369-0.214-0.978-0.214-1.347,0l-1.267,0.737					c-0.369,0.214-0.365,0.566,0.005,0.779l1.613,0.93c0.372,0.218,0.98,0.218,1.347,0.002l1.269-0.736					C52.042,75.502,52.04,75.149,51.669,74.936"/>			</g>			<g>				<path fill="#6C6C6C" d="M51.274,74.704l-1.344-0.778c-0.308-0.178-0.815-0.178-1.121,0l-1.056,0.612					c-0.308,0.18-0.304,0.474,0.005,0.652l1.342,0.773c0.309,0.182,0.816,0.182,1.123,0.001l1.055-0.611					C51.586,75.174,51.584,74.878,51.274,74.704"/>			</g>		</g>		<g>			<g>				<path fill="#3F3F3F" d="M54.867,76.647l-1.616-0.932c-0.369-0.214-0.978-0.214-1.347,0l-1.269,0.736					c-0.367,0.213-0.363,0.566,0.007,0.779l1.613,0.929c0.371,0.218,0.981,0.218,1.348,0.002l1.268-0.736					C55.24,77.213,55.238,76.86,54.867,76.647"/>			</g>			<g>				<path fill="#6C6C6C" d="M54.473,76.415l-1.345-0.778c-0.308-0.179-0.815-0.179-1.121,0l-1.055,0.613					c-0.308,0.177-0.305,0.473,0.004,0.649l1.341,0.775c0.31,0.181,0.816,0.181,1.123,0.002l1.056-0.612					C54.783,76.885,54.78,76.59,54.473,76.415"/>			</g>		</g>		<g>			<g>				<path fill="#3F3F3F" d="M58.213,78.431L56.6,77.502c-0.372-0.215-0.979-0.215-1.35,0l-1.268,0.735					c-0.368,0.212-0.364,0.567,0.006,0.78l1.61,0.927c0.372,0.22,0.983,0.22,1.35,0.003l1.268-0.735					C58.586,78.997,58.583,78.644,58.213,78.431"/>			</g>			<g>				<path fill="#6C6C6C" d="M57.818,78.199l-1.345-0.778c-0.309-0.178-0.816-0.178-1.121,0l-1.057,0.613					c-0.307,0.18-0.304,0.475,0.004,0.65l1.344,0.775c0.31,0.182,0.816,0.182,1.123,0.002l1.055-0.613					C58.129,78.671,58.127,78.376,57.818,78.199"/>			</g>		</g>		<g>			<g>				<path fill="#3F3F3F" d="M25.794,63.633l-1.615-0.93c-0.37-0.216-0.979-0.216-1.347,0l-1.268,0.736					c-0.368,0.215-0.365,0.565,0.004,0.778l1.613,0.928c0.372,0.219,0.98,0.219,1.348,0.005l1.269-0.735					C26.167,64.2,26.164,63.845,25.794,63.633"/>			</g>			<g>				<path fill="#6C6C6C" d="M25.4,63.399l-1.345-0.776c-0.308-0.176-0.815-0.176-1.122,0l-1.055,0.612					c-0.308,0.181-0.304,0.476,0.003,0.652l1.344,0.774c0.31,0.18,0.815,0.18,1.122,0.003l1.057-0.612					C25.71,63.871,25.708,63.576,25.4,63.399"/>			</g>		</g>		<g>			<g>				<path fill="#3F3F3F" d="M29.065,65.342l-1.615-0.93c-0.37-0.212-0.979-0.212-1.347,0l-1.268,0.738					c-0.369,0.212-0.365,0.564,0.005,0.778l1.613,0.928c0.371,0.22,0.98,0.22,1.347,0.005l1.269-0.737					C29.439,65.909,29.436,65.556,29.065,65.342"/>			</g>			<g>				<path fill="#6C6C6C" d="M28.672,65.109l-1.345-0.775c-0.308-0.179-0.815-0.179-1.122,0l-1.056,0.612					c-0.307,0.18-0.304,0.474,0.005,0.65l1.343,0.775c0.31,0.18,0.815,0.18,1.122,0l1.057-0.611					C28.982,65.581,28.98,65.287,28.672,65.109"/>			</g>		</g>		<g>			<g>				<path fill="#3F3F3F" d="M32.188,67.052l-1.615-0.929c-0.37-0.215-0.979-0.215-1.347,0l-1.267,0.736					c-0.369,0.214-0.365,0.565,0.005,0.778l1.613,0.928c0.371,0.22,0.98,0.22,1.347,0.005l1.269-0.737					C32.562,67.619,32.559,67.265,32.188,67.052"/>			</g>			<g>				<path fill="#6C6C6C" d="M31.795,66.82l-1.346-0.778c-0.308-0.177-0.814-0.177-1.121,0l-1.056,0.613					c-0.308,0.181-0.305,0.475,0.003,0.651l1.343,0.774c0.31,0.183,0.816,0.183,1.122,0.002l1.058-0.613					C32.105,67.291,32.103,66.997,31.795,66.82"/>			</g>		</g>		<g>			<g>				<path fill="#3F3F3F" d="M35.312,68.762l-1.615-0.931c-0.371-0.214-0.979-0.214-1.348,0l-1.267,0.736					c-0.369,0.216-0.365,0.567,0.004,0.78l1.614,0.929c0.372,0.218,0.98,0.218,1.347,0.004l1.269-0.738					C35.684,69.329,35.681,68.975,35.312,68.762"/>			</g>			<g>				<path fill="#6C6C6C" d="M34.917,68.529l-1.344-0.776c-0.309-0.179-0.815-0.179-1.122,0l-1.055,0.612					c-0.307,0.179-0.304,0.475,0.003,0.651l1.343,0.774c0.31,0.182,0.816,0.182,1.122,0.002l1.057-0.613					C35.228,69.001,35.226,68.705,34.917,68.529"/>			</g>		</g>		<g>			<g>				<path fill="#3F3F3F" d="M38.434,70.471l-1.614-0.93c-0.37-0.214-0.98-0.214-1.348,0l-1.267,0.736					c-0.368,0.213-0.365,0.566,0.004,0.78l1.613,0.927c0.372,0.22,0.981,0.22,1.348,0.004l1.269-0.735					C38.807,71.039,38.803,70.685,38.434,70.471"/>			</g>			<g>				<path fill="#6C6C6C" d="M38.04,70.238l-1.344-0.776c-0.308-0.179-0.815-0.179-1.122,0l-1.055,0.613					c-0.308,0.177-0.304,0.475,0.004,0.65l1.343,0.775c0.31,0.181,0.816,0.181,1.122,0.002l1.056-0.613					C38.35,70.711,38.348,70.416,38.04,70.238"/>			</g>		</g>		<g>			<g>				<path fill="#3F3F3F" d="M41.557,72.181l-1.615-0.931c-0.37-0.213-0.979-0.213-1.348,0l-1.267,0.737					c-0.369,0.214-0.365,0.566,0.004,0.779l1.613,0.929c0.372,0.218,0.981,0.218,1.349,0.003l1.268-0.737					C41.93,72.747,41.926,72.394,41.557,72.181"/>			</g>			<g>				<path fill="#6C6C6C" d="M41.163,71.948l-1.345-0.778c-0.309-0.176-0.815-0.176-1.122,0l-1.056,0.613					c-0.307,0.181-0.305,0.476,0.004,0.652l1.342,0.774c0.311,0.181,0.816,0.181,1.123,0.001l1.057-0.612					C41.474,72.42,41.47,72.126,41.163,71.948"/>			</g>		</g>		<g>			<g>				<path fill="#3F3F3F" d="M44.679,73.89l-1.615-0.93c-0.369-0.214-0.978-0.214-1.346,0l-1.268,0.736					c-0.368,0.214-0.365,0.566,0.006,0.78l1.612,0.927c0.373,0.219,0.982,0.219,1.348,0.003l1.269-0.738					C45.052,74.457,45.049,74.104,44.679,73.89"/>			</g>			<g>				<path fill="#6C6C6C" d="M44.285,73.658l-1.345-0.777c-0.308-0.179-0.815-0.179-1.121,0l-1.056,0.613					c-0.307,0.178-0.304,0.473,0.004,0.651l1.343,0.773c0.31,0.181,0.816,0.181,1.122,0.003l1.057-0.614					C44.596,74.13,44.594,73.836,44.285,73.658"/>			</g>		</g>		<g>			<g>				<path fill="#3F3F3F" d="M47.802,75.6l-1.615-0.932c-0.37-0.215-0.978-0.215-1.347,0l-1.267,0.737					c-0.368,0.214-0.365,0.567,0.006,0.781l1.613,0.928c0.371,0.218,0.981,0.218,1.347,0.003l1.269-0.736					C48.175,76.167,48.173,75.813,47.802,75.6"/>			</g>			<g>				<path fill="#6C6C6C" d="M47.408,75.367l-1.344-0.776c-0.309-0.178-0.816-0.178-1.122,0l-1.055,0.612					c-0.307,0.179-0.305,0.475,0.003,0.65l1.343,0.776c0.31,0.181,0.816,0.181,1.122,0.001l1.058-0.613					C47.718,75.84,47.716,75.544,47.408,75.367"/>			</g>		</g>		<g>			<g>				<path fill="#3F3F3F" d="M50.925,77.309l-1.616-0.932c-0.37-0.212-0.979-0.212-1.348,0l-1.267,0.737					c-0.367,0.213-0.364,0.566,0.006,0.781l1.613,0.927c0.371,0.219,0.98,0.219,1.347,0.003l1.268-0.737					C51.298,77.876,51.295,77.522,50.925,77.309"/>			</g>			<g>				<path fill="#6C6C6C" d="M50.53,77.077L49.186,76.3c-0.307-0.179-0.815-0.179-1.121,0l-1.056,0.613					c-0.308,0.178-0.304,0.474,0.005,0.649l1.341,0.774c0.311,0.183,0.817,0.183,1.122,0.004l1.057-0.614					C50.84,77.547,50.838,77.254,50.53,77.077"/>			</g>		</g>		<g>			<g>				<path fill="#3F3F3F" d="M54.047,79.02l-1.615-0.932c-0.369-0.215-0.978-0.215-1.347,0l-1.269,0.736					c-0.368,0.213-0.364,0.567,0.007,0.781l1.611,0.928c0.372,0.217,0.981,0.217,1.349,0.001l1.27-0.735					C54.42,79.584,54.418,79.231,54.047,79.02"/>			</g>			<g>				<path fill="#6C6C6C" d="M53.652,78.787l-1.344-0.777c-0.308-0.179-0.816-0.179-1.121,0l-1.057,0.611					c-0.307,0.181-0.304,0.475,0.005,0.651l1.342,0.773c0.31,0.184,0.815,0.184,1.124,0.003l1.055-0.612					C53.964,79.258,53.962,78.963,53.652,78.787"/>			</g>		</g>		<g>			<g>				<path fill="#3F3F3F" d="M57.393,80.728l-1.614-0.932c-0.37-0.213-0.98-0.213-1.348,0l-1.268,0.738					c-0.369,0.213-0.365,0.565,0.005,0.781l1.613,0.927c0.372,0.218,0.981,0.218,1.349,0.003l1.269-0.737					C57.768,81.296,57.764,80.942,57.393,80.728"/>			</g>			<g>				<path fill="#6C6C6C" d="M57,80.496l-1.346-0.778c-0.308-0.178-0.814-0.178-1.121,0l-1.056,0.613					c-0.308,0.179-0.304,0.476,0.004,0.649l1.342,0.776c0.311,0.183,0.816,0.183,1.123,0.001l1.059-0.612					C57.309,80.967,57.307,80.671,57,80.496"/>			</g>		</g>	</g>	<g>		<g>			<path fill="#3F3F3F" d="M22.077,65.045l-1.615-0.93c-0.37-0.215-0.979-0.215-1.347,0l-1.268,0.737				c-0.367,0.211-0.365,0.566,0.006,0.779l1.612,0.927c0.372,0.22,0.981,0.22,1.348,0.006l1.27-0.739				C22.45,65.612,22.448,65.26,22.077,65.045"/>		</g>		<g>			<path fill="#6C6C6C" d="M21.683,64.813l-1.344-0.777c-0.308-0.179-0.815-0.179-1.121,0l-1.056,0.612				c-0.308,0.18-0.305,0.474,0.003,0.65l1.343,0.775c0.31,0.182,0.816,0.182,1.122,0.001l1.057-0.612				C21.995,65.284,21.991,64.989,21.683,64.813"/>		</g>	</g>	<g>		<g>			<path fill="#3F3F3F" d="M25.553,66.899l-1.614-0.929c-0.37-0.216-0.979-0.216-1.347,0l-1.268,0.733				c-0.369,0.216-0.365,0.567,0.004,0.781l1.614,0.928c0.372,0.219,0.98,0.219,1.347,0.001l1.269-0.733				C25.927,67.466,25.923,67.113,25.553,66.899"/>		</g>		<g>			<path fill="#6C6C6C" d="M25.158,66.667l-1.344-0.776c-0.308-0.178-0.815-0.178-1.121,0l-1.056,0.612				c-0.307,0.18-0.304,0.475,0.004,0.649l1.343,0.776c0.31,0.18,0.815,0.18,1.122,0.003l1.057-0.613				C25.469,67.136,25.468,66.843,25.158,66.667"/>		</g>	</g>	<g>		<g>			<path fill="#3F3F3F" d="M28.567,68.522l-1.615-0.933c-0.37-0.213-0.978-0.213-1.347,0l-1.267,0.737				c-0.368,0.216-0.365,0.567,0.004,0.78l1.614,0.929c0.372,0.22,0.981,0.22,1.347,0.003l1.27-0.736				C28.939,69.088,28.937,68.733,28.567,68.522"/>		</g>		<g>			<path fill="#6C6C6C" d="M28.173,68.29l-1.344-0.778c-0.308-0.178-0.816-0.178-1.122,0l-1.055,0.614				c-0.308,0.179-0.305,0.474,0.003,0.65l1.343,0.773c0.31,0.181,0.816,0.181,1.122,0.003l1.057-0.613				C28.483,68.761,28.481,68.465,28.173,68.29"/>		</g>	</g>	<g>		<g>			<path fill="#3F3F3F" d="M46.76,78.374l-1.615-0.934c-0.371-0.211-0.979-0.211-1.348,0l-1.267,0.738				c-0.368,0.215-0.364,0.567,0.004,0.778l1.614,0.93c0.371,0.219,0.981,0.219,1.346,0.002l1.27-0.735				C47.133,78.938,47.129,78.586,46.76,78.374"/>		</g>		<g>			<path fill="#6C6C6C" d="M46.364,78.141l-1.343-0.777c-0.309-0.18-0.815-0.18-1.121,0l-1.057,0.613				c-0.307,0.178-0.304,0.473,0.004,0.649l1.343,0.774c0.309,0.181,0.816,0.181,1.121,0.002l1.058-0.611				C46.676,78.611,46.674,78.315,46.364,78.141"/>		</g>	</g>	<g>		<g>			<path fill="#3F3F3F" d="M50.12,80.053l-1.614-0.932c-0.371-0.212-0.98-0.212-1.347,0l-1.267,0.737				c-0.37,0.215-0.367,0.566,0.003,0.78l1.614,0.927c0.372,0.22,0.981,0.22,1.348,0.005l1.268-0.737				C50.493,80.619,50.489,80.266,50.12,80.053"/>		</g>		<g>			<path fill="#6C6C6C" d="M49.726,79.82l-1.344-0.777c-0.309-0.178-0.816-0.178-1.123,0l-1.053,0.615				c-0.309,0.177-0.304,0.474,0.003,0.648l1.343,0.774c0.309,0.181,0.816,0.181,1.121,0.004l1.055-0.615				C50.037,80.291,50.033,79.996,49.726,79.82"/>		</g>	</g>	<g>		<g>			<path fill="#3F3F3F" d="M53.362,81.85l-1.613-0.935c-0.369-0.209-0.979-0.209-1.347,0l-1.267,0.74				c-0.37,0.214-0.366,0.568,0.005,0.781l1.613,0.926c0.37,0.22,0.981,0.22,1.348,0.004l1.269-0.735				C53.737,82.413,53.734,82.063,53.362,81.85"/>		</g>		<g>			<path fill="#6C6C6C" d="M52.972,81.615l-1.345-0.775c-0.309-0.179-0.817-0.179-1.124,0l-1.055,0.613				c-0.307,0.177-0.304,0.476,0.005,0.649l1.343,0.776c0.31,0.18,0.814,0.18,1.121,0.002l1.058-0.614				C53.279,82.088,53.277,81.793,52.972,81.615"/>		</g>	</g>	<path fill="#3F3F3F" d="M42.939,76.831l-12.678-7.317c-0.777-0.448-1.038-0.212-1.401,0l-0.773,0.448		c-0.365,0.213-0.699,0.321,0.078,0.771l12.677,7.317c0.776,0.449,1.046,0.257,1.413,0.045l0.761-0.443		C43.379,77.439,43.714,77.282,42.939,76.831"/>	<path fill="#666666" d="M42.281,76.162l-11.894-6.864c-0.729-0.422-0.972-0.198-1.314,0l-0.725,0.42		c-0.341,0.201-0.657,0.302,0.073,0.721l11.894,6.867c0.728,0.423,1.197,0.841,1.788,0.482l0.977-0.514		C43.413,77.043,43.311,76.761,42.281,76.162"/>	<polygon fill="#8C8C8C" stroke="#000000" stroke-width="0.1" points="51.06,93.02 64.889,84.656 64.862,86.174 51.032,94.676 	"/>	<g>		<g>			<g enable-background="new    ">				<defs>					<polygon fill="#000000" id="com.gliffy.network.home.Laptop_XMLID_1_" enable-background="new    " points="71.383,81.987 71.38,80.968 72.267,80.455 72.27,81.475 					"/>				</defs>				<clipPath id="com.gliffy.network.home.Laptop_XMLID_11_">					<use xlink:href="#com.gliffy.network.home.Laptop_XMLID_1_" />				</clipPath>				<g clip-path="url(#com.gliffy.network.home.Laptop_XMLID_11_)">					<g>						<g>							<g>								<path fill="#000000" d="M71.826,80.791c-0.21,0.121-0.376,0.407-0.375,0.643c0,0.242,0.167,0.337,0.378,0.215									c0.204-0.117,0.369-0.404,0.368-0.646C72.197,80.768,72.031,80.673,71.826,80.791"/>								<path fill="#B2B2B2" d="M71.829,81.648c-0.211,0.122-0.378,0.027-0.378-0.215c-0.001-0.235,0.165-0.521,0.375-0.643									c0.205-0.118,0.371-0.023,0.371,0.211C72.198,81.244,72.033,81.531,71.829,81.648 M71.826,80.709									c-0.249,0.145-0.446,0.486-0.445,0.765c0.001,0.287,0.199,0.399,0.448,0.256c0.242-0.141,0.44-0.481,0.439-0.769									C72.268,80.683,72.068,80.569,71.826,80.709"/>							</g>						</g>					</g>				</g>			</g>		</g>	</g>	<g>		<g>			<g enable-background="new    ">				<defs>					<polygon id="com.gliffy.network.home.Laptop_XMLID_3_" enable-background="new    " fill="#000000" points="73.039,81.033 73.036,80.014 73.923,79.501 73.926,80.521 					"/>				</defs>				<clipPath id="com.gliffy.network.home.Laptop_XMLID_12_">					<use xlink:href="#com.gliffy.network.home.Laptop_XMLID_3_" />				</clipPath>				<g clip-path="url(#com.gliffy.network.home.Laptop_XMLID_12_)">					<g>						<g>							<g>								<path fill="#000000" d="M73.476,79.841c-0.203,0.117-0.369,0.411-0.368,0.646c0,0.234,0.167,0.329,0.371,0.212									c0.204-0.118,0.37-0.405,0.369-0.64S73.681,79.723,73.476,79.841"/>								<path fill="#B2B2B2" d="M73.479,80.699c-0.204,0.117-0.371,0.022-0.371-0.212c-0.001-0.235,0.165-0.529,0.368-0.646									c0.205-0.118,0.371-0.016,0.372,0.219S73.683,80.581,73.479,80.699 M73.476,79.76c-0.242,0.14-0.439,0.488-0.438,0.768									s0.199,0.392,0.441,0.252c0.243-0.141,0.447-0.485,0.446-0.764C73.924,79.736,73.719,79.619,73.476,79.76"/>							</g>						</g>					</g>				</g>			</g>		</g>	</g>	<g>		<g>			<g enable-background="new    ">				<defs>					<polygon fill="#000000" id="com.gliffy.network.home.Laptop_XMLID_5_" enable-background="new    " points="74.837,79.987 74.834,78.968 75.716,78.459 75.719,79.479 					"/>				</defs>				<clipPath id="com.gliffy.network.home.Laptop_XMLID_14_">					<use xlink:href="#com.gliffy.network.home.Laptop_XMLID_5_" />				</clipPath>				<g clip-path="url(#com.gliffy.network.home.Laptop_XMLID_14_)">					<g>						<g>							<g>								<path fill="#000000" d="M75.275,78.795c-0.205,0.117-0.37,0.404-0.37,0.639c0.001,0.234,0.168,0.337,0.372,0.219									c0.205-0.117,0.369-0.411,0.369-0.646C75.646,78.771,75.479,78.677,75.275,78.795"/>								<path fill="#B2B2B2" d="M75.277,79.652c-0.204,0.118-0.371,0.016-0.372-0.219c0-0.234,0.165-0.521,0.37-0.639									c0.204-0.118,0.37-0.023,0.371,0.211C75.646,79.241,75.482,79.535,75.277,79.652 M75.275,78.713									c-0.244,0.141-0.44,0.482-0.439,0.761c0.001,0.287,0.199,0.399,0.441,0.26c0.243-0.141,0.44-0.481,0.439-0.769									C75.716,78.687,75.518,78.573,75.275,78.713"/>							</g>						</g>					</g>				</g>			</g>		</g>	</g>	<linearGradient id="com.gliffy.network.home.Laptop_XMLID_16_" gradientUnits="userSpaceOnUse" x1="44.4072" y1="54.3467" x2="45.148" y2="53.0563">		<stop  offset="0.0056" style="stop-color:#000000"/>		<stop  offset="0.6011" style="stop-color:#FFFFFF"/>		<stop  offset="1" style="stop-color:#000000"/>	</linearGradient>	<path fill="url(#com.gliffy.network.home.Laptop_XMLID_16_)" d="M41.229,50.722c9.571,5.223,7.495,4.106,8.529,4.675c-0.502-0.271-1.688,1.063-0.862,1.527		c-1.636-0.935-7.831-4.486-8.445-4.888C39.871,51.656,40.43,50.278,41.229,50.722z"/>	<linearGradient id="com.gliffy.network.home.Laptop_XMLID_18_" gradientUnits="userSpaceOnUse" x1="66.4453" y1="66.7207" x2="67.1856" y2="65.431">		<stop  offset="0.0056" style="stop-color:#000000"/>		<stop  offset="0.6011" style="stop-color:#FFFFFF"/>		<stop  offset="1" style="stop-color:#000000"/>	</linearGradient>	<path fill="url(#com.gliffy.network.home.Laptop_XMLID_18_)" d="M63.267,63.097c9.571,5.224,7.494,4.107,8.528,4.675c-0.502-0.271-1.687,1.063-0.862,1.526		c-1.636-0.935-7.831-4.486-8.444-4.888C61.909,64.031,62.467,62.652,63.267,63.097z"/>	<path fill="#666666" d="M71.264,67.762c-0.334,0.192-0.603,0.658-0.603,1.042c0,0.249,0.107,0.435,0.283,0.453		c0.091,0.011,0.649-0.635,0.649-0.635s0.104-0.577,0.176-0.84C71.661,67.656,71.475,67.639,71.264,67.762"/></g><g id="Layer_2_1_">	<rect fill="none" width="99.999" height="100"/>	<path stroke="#000000" stroke-width="0.2" d="M93.83,29.124l1.354,0.656l-0.517,1.592L81.424,71.969l-0.819,0.818		l-1.401-0.117L37.275,49.307l-0.717-0.705l-0.027-1.295l10.152-39.41l0.393-1.528l1.176,0.572L93.83,29.124z M79.435,69.489		l12.042-37.845L48.643,10.574l-9.533,36.57L79.435,69.489"/>	<polygon stroke="#000000" stroke-width="0.2" stroke-linejoin="bevel" points="95.234,29.722 96.561,27.864 		83.005,70.63 81.382,72.155 	"/>	<polygon stroke="#000000" stroke-width="0.2" stroke-linejoin="bevel" points="47.166,6.282 49.296,5.776 		96.524,27.852 95.217,29.671 	"/>	<path stroke="#000000" stroke-width="0.3" d="M76.776,71.725L38.952,50.26c-1.42-0.792-3.699-0.754-5.077,0.069		L3.765,68.301c-1.392,0.826-1.365,2.137,0.056,2.928l37.254,20.725c1.418,0.789,4.948,3.189,7.753,1.736l30.108-17.973		C81.917,73.691,78.2,72.518,76.776,71.725z M53.575,85.023L16.184,65.096l18.584-10.512l36.487,20.061L53.575,85.023z"/></g><g id="Layer_3">	<rect fill="none" width="99.876" height="100"/>	<linearGradient id="com.gliffy.network.home.Laptop_XMLID_19_" gradientUnits="userSpaceOnUse" x1="37.5762" y1="37.3477" x2="94.0387" y2="42.338">		<stop  offset="0" style="stop-color:#FFFFFF"/>		<stop  offset="1" style="stop-color:#000000"/>	</linearGradient>	<path opacity="0.55" fill="url(#com.gliffy.network.home.Laptop_XMLID_19_)" d="M47.153,6.504L36.688,47.406l0.031,1.203l0.688,0.641l41.766,23.438l1.469,0.156		L81.469,72l13.672-42.125L47.153,6.504z M79.388,69.114L39.016,47.188l9.625-36.703l42.883,21.16L79.388,69.114z"/>	<linearGradient id="com.gliffy.network.home.Laptop_XMLID_20_" gradientUnits="userSpaceOnUse" x1="2.8125" y1="68.501" x2="79.9114" y2="75.3153">		<stop  offset="0" style="stop-color:#FFFFFF"/>		<stop  offset="1" style="stop-color:#000000"/>	</linearGradient>	<path opacity="0.49" fill="url(#com.gliffy.network.home.Laptop_XMLID_20_)" d="M79.604,73.179l-2.827-1.454L38.042,49.973l-1.835-0.262l-2.332,0.619L3.765,68.301		l-0.991,0.945l-0.131,1.18l1.179,0.803L43.68,93.369l1.573,0.524l1.835,0.263l2.098-0.787l30.286-18.093l0.524-0.918L79.604,73.179		z M53.575,85.023L16.184,65.096l18.584-10.512l36.487,20.061L53.575,85.023z"/></g></symbol></defs><g transform='translate(9.0,10.0) rotate(0 30.0 30.0)'><use xlink:href='#com.gliffy.network.home.Laptop' width='60.0' height='60.0'  fill="#B2B2B2"/><g ></g></g><g transform='translate(64.0,9.5) rotate(0 327.5 33.5)'><g  transform='translate(0.0,56.5)'><text text-rendering='auto' font-size='48px' x='327.5' style='text-anchor: middle' y='-9.0'><tspan><tspan font-size='48' font-family='Verdana' fill='#F7941D' >jaraco.com</tspan></tspan></text></g></g></svg>
